PathFileType	4	(X/Y/Z)	Patient4_TMGait_0pt8_01_right_32.trc.trc
DataRate	CameraRate	NumFrames	NumMarkers	Units	OrigDataRate	OrigDataStartFrame	OrigNumFrames
86.956521739130	86.956521739130	4	33	mm	86.956521739130	53	       141
Frame#	Time	Sacral			L.Shoulder			Chest			R.Shoulder			Neck			R.ASIS			L.ASIS			R.Thigh.Superior			R.Thigh.Lateral			R.Thigh.Inferior			R.Patella			L.Thigh.Superior			L.Thigh.Lateral			L.Thigh.Inferior			L.Patella			L.Shank.Superior			L.Shank.Lateral			L.Shank.Inferior			R.Shank.Superior			R.Shank.Lateral			R.Shank.Inferior			R.Heel			R.Midfoot.Superior			R.Midfoot.Lateral			R.Toe			L.Heel			L.Midfoot.Lateral			L.Midfoot.Superior			L.Toe			L.Elbow			L.Wrist			R.Elbow			R.Wrist			
		X1	Y1	Z1	X2	Y2	Z2	X3	Y3	Z3	X4	Y4	Z4	X5	Y5	Z5	X6	Y6	Z6	X7	Y7	Z7	X8	Y8	Z8	X9	Y9	Z9	X10	Y10	Z10	X11	Y11	Z11	X12	Y12	Z12	X13	Y13	Z13	X14	Y14	Z14	X15	Y15	Z15	X16	Y16	Z16	X17	Y17	Z17	X18	Y18	Z18	X19	Y19	Z19	X20	Y20	Z20	X21	Y21	Z21	X22	Y22	Z22	X23	Y23	Z23	X24	Y24	Z24	X25	Y25	Z25	X26	Y26	Z26	X27	Y27	Z27	X28	Y28	Z28	X29	Y29	Z29	X30	Y30	Z30	X31	Y31	Z31	X32	Y32	Z32	X33	Y33	Z33	

53	36.398000000000	831.134926204161	1010.330787107850	523.293880267368	999.008446179874	1438.001195522954	337.597928223458	1118.814764917626	1361.903860345343	484.334781365642	1058.510625238373	1432.266544278476	669.289177940386	1008.477922234158	1496.276639829590	495.874104767462	1065.004862609038	947.930239315884	623.520053077438	1030.162810216007	962.890105837463	351.145640068252	1086.213972325598	740.755610363958	595.470651451328	995.410289537183	636.295654702722	655.317164717604	1065.904341147108	579.673846046044	575.853143651070	1057.558765589536	494.592927483294	580.374757721941	1121.263124838732	796.437479182185	365.006509230209	1081.615923638492	667.737518939842	283.041783909830	1197.692102283512	615.421042881486	329.419715920277	1221.379683864596	531.798994918126	317.089814000861	1171.431761212418	454.787522171877	314.361308275950	1042.507200445929	376.493699932470	278.312237780943	1073.236332868775	247.584525817811	327.581031604791	1030.172595321104	406.800662803456	584.630607097205	957.178058165139	301.100724941789	641.453726248419	1003.792798549936	208.516945518620	576.245174203681	872.487861518737	42.120187863113	536.412592621830	1043.696119388374	98.593467731659	574.817791013692	955.457717004250	36.833900758409	611.783565032751	1163.111648550532	47.901084076331	601.808861221269	915.478508509384	128.072545505509	381.683682634237	972.409345020387	107.212264360812	291.531457653641	1072.961028891148	144.568624495520	303.247245959784	1174.563784666690	61.988243264388	255.429159486609	926.986692406092	1087.242098179057	237.158666964307	971.107817924263	830.244484921561	226.088312614328	1111.482497578574	1084.534545572943	783.166407660340	1320.425285550970	930.910035955443	762.180470584513	
54	36.409500000000	830.359758850168	1010.019038495059	524.443387515164	997.272225879516	1437.316945732614	337.824840932643	1118.078043929360	1361.244872234979	483.736120865867	1059.249167161158	1431.874142462837	669.098822973074	1008.026447854120	1495.754480603484	495.939808333787	1064.482759127521	947.412095481166	623.672435145860	1028.590103433678	962.584331240751	351.344247442749	1083.000630803288	739.566519710442	594.977705180618	991.071878709645	635.989976838912	655.506266078383	1059.973092543775	578.657378088801	575.588237559104	1050.612870995615	493.860341897625	579.967761270197	1120.463299664044	797.779250636438	366.060732149707	1082.880673567114	668.808181055903	283.535216034311	1198.718290198638	617.554989199116	330.864796213198	1224.229992086093	535.785235805151	318.247924226203	1178.377137314241	457.833333464716	314.296482572666	1055.349173990212	371.917553386467	276.147984383851	1094.120396850377	244.513812872663	324.347488502004	1022.799352614260	406.241305682868	584.242940523511	949.770243513423	300.803051439340	641.552092171898	995.398145558854	208.093304706593	575.792152101735	863.223539061311	42.056946353161	536.346600348067	1034.387161340654	98.449354682173	574.664203836171	946.175256224850	36.850052710201	611.746437317140	1153.834230880821	47.709899876398	601.875123585375	944.330091302810	115.001947538232	375.919901436080	1003.234878231727	98.156012025471	286.267630225401	1101.242338434228	141.269411944406	299.190063798198	1207.958724112230	64.911556887113	252.063424007205	917.102729524462	1088.141029029965	238.883186489422	945.148703955255	829.387816517263	227.033831345978	1122.896927738029	1086.597286987956	782.710072675436	1342.082788232692	949.611848263914	756.771894421594	
55	36.421000000000	829.700588391881	1009.623092054336	525.469159544476	995.668712917027	1436.583973443150	337.955665762591	1117.434455639342	1360.490172937853	483.037896853578	1060.030248381569	1431.343653103811	668.791573617225	1007.652391646362	1495.122386995234	495.908950269287	1064.088808491839	946.785465300925	623.699337375318	1027.154965219382	962.091737095391	351.392522412127	1079.874098229028	738.268985963485	594.454086258047	986.781491529930	635.639443587799	655.677129607536	1054.043360253976	577.601503466167	575.269203118160	1043.677949338558	493.088045590049	579.535436710855	1119.378078905493	798.428582333031	367.058524440793	1083.472717461304	669.295425690949	284.019669613498	1198.859382577824	618.758767635131	332.492298559967	1226.045969146702	539.040779059135	319.653692343169	1184.380918091318	460.557631495201	314.467679921757	1067.995421878602	367.279525820695	273.949375886253	1114.755130481516	242.011835680557	321.333677950796	1015.392584407514	405.670914545425	583.872406318100	942.340621635352	300.496669202017	641.682162438433	986.956885901312	207.674499623464	575.370007239151	853.954694978563	41.993053349347	536.293854507437	1025.062126170488	98.296091773153	574.509952331267	936.882272170113	36.855308641295	611.714195827670	1144.550737128958	47.521744282454	601.927265751183	973.633972324782	102.970413402696	370.165290385233	1034.520450188598	90.135859797730	281.214118914151	1129.574815757811	138.904682411005	295.468074168309	1241.148251733586	69.055794586586	249.491163589420	907.283704257718	1089.374170808594	240.302878132164	920.235796055560	829.883369347095	228.056249664768	1133.943650760614	1088.854799756636	781.902496675878	1362.119174303783	969.568388738295	750.901149650474	
56	36.432500000000	829.180195886423	1009.149659426675	526.377981128989	994.208196194082	1435.813264637892	337.983757397137	1116.889200159360	1359.654776958310	482.241292602735	1060.853031153446	1430.693926853330	668.364634890315	1007.356008570593	1494.395239722133	495.776656845914	1063.841187101436	946.057972668718	623.601707589459	1025.870981021925	961.423034839126	351.299291460553	1076.871947483543	736.872903840589	593.921427169731	982.578773803787	635.251454983085	655.836647040864	1048.172373739448	576.513858007364	574.916759376902	1036.812089610939	492.277294763731	579.099073226480	1118.036061027513	798.397977362739	367.973817294679	1083.400511774016	669.206461585498	284.428034123335	1198.185955066229	619.067203553912	334.189801055045	1226.897245171443	541.573174632447	321.214006563649	1189.459303047731	462.962811427253	314.826211463042	1080.345573440670	362.701893835397	271.769917116191	1134.911733616317	240.185260739916	318.622245110562	1008.000438874896	405.091579090980	583.538829046426	934.905568538174	300.195896994822	641.850087733302	978.485905902882	207.266815742036	574.998172846122	844.681055413230	41.933125101111	536.257984497482	1015.731152138756	98.137413134825	574.363445645443	927.581777422241	36.849570641279	611.690882652603	1135.268071517659	47.338155222794	601.962514220463	1003.017649069122	92.247381031648	364.630356985876	1065.871221001318	83.324202994767	276.563506467466	1157.609623241929	137.571123193167	292.195542344849	1273.713473835408	74.416451005375	247.822461485814	897.557574215267	1090.952859691227	241.426566340611	896.559206276839	831.550644536548	229.172907730477	1144.637858318600	1091.287992293810	780.744407175624	1380.390388071285	990.573020385943	744.645747609596	
